<?xml version="1.0" encoding="UTF-8"?>
<svg id="Camada_1" xmlns="http://www.w3.org/2000/svg" viewBox="0 0 1025.41 801.89">
  <defs>
    <style>
      .cls-1 {
        fill: #fff;
      }
    </style>
  </defs>
  <path class="cls-1" d="M308.16,801.17h-155.48c-.14-1.25-.35-2.36-.36-3.47-.26-29.89.68-59.72,3.6-89.49,3.52-35.86,9.41-71.33,17.62-106.39,14.49-61.91,34.83-121.81,62.35-179.18,6.12-12.76,12.87-25.21,19.22-37.86,1.25-2.49,2.8-3.55,5.72-3.52,15.33.15,30.66.06,46,.08,1.24,0,2.48.15,4.48.28-34.35,56.74-59.77,116.69-78.48,179.51-18.72,62.83-30.49,126.87-33.22,192.36,3.51,1.05,58.55,1.16,62.63.2.18-2.81.46-5.75.55-8.69.82-26.39,3.46-52.61,7.43-78.7,6.49-42.61,16.95-84.24,30.95-125,12.55-36.55,27.94-71.88,45.4-106.32,16.69-32.92,35.2-64.82,54.73-96.14.89-1.42,1.73-2.87,2.83-4.68-1.18-.27-1.97-.59-2.78-.62-2.08-.08-4.16-.04-6.24-.04-129.67,0-259.35,0-389.02,0-1.77,0-3.54,0-6.08,0,1.23-2.51,2.05-4.35,3.01-6.11,10.66-19.63,21.34-39.25,32.02-58.87,13.28-24.42,26.58-48.82,39.79-73.27,1.1-2.04,2.26-3.12,4.74-3.1,15.59.1,31.18.04,46.78.07.86,0,1.71.22,3.16.42-16.69,31.35-33.68,62.07-50.72,93.35,1.61.22,2.59.42,3.57.46,1.43.07,2.86.02,4.29.02,132.53,0,265.06,0,397.6,0,1.93,0,3.85,0,5.69,0,.79,2.07-.52,3.08-1.24,4.18-7.96,12.18-15.95,24.34-23.97,36.48-25.71,38.93-50.15,78.63-71.71,120.04-18.61,35.76-34.87,72.53-47.93,110.71-8.8,25.71-16.1,51.83-21.76,78.4-4.71,22.11-8.18,44.43-10.61,66.92-3.32,30.78-4.23,61.66-3.93,92.59.01,1.43-.06,2.85-.12,4.28-.01.23-.19.46-.5,1.15Z"/>
  <path class="cls-1" d="M597.16,238.93H157.69c.53-1.5.75-2.48,1.2-3.33,7.22-13.52,14.5-27,21.66-40.54,1.1-2.08,2.4-3.21,4.83-2.92,1.28.15,2.6.03,3.89.03,172.39,0,344.79,0,517.18-.01,6.36,0,12.72-.33,19.08-.3,50.13.28,93.73,17.47,130.72,51.17,24.39,22.22,41.83,49.17,52.23,80.5,9.53,28.69,12.14,58.08,7.96,88.05-5.36,38.38-20.84,72.16-46.56,101.1-26.73,30.07-59.72,50.06-98.82,59.72-20.72,5.12-41.76,6.55-63.04,4.63-40.15-3.62-75.74-18.37-106.64-44.13-27.67-23.07-47.31-51.81-59-85.94-7.4-21.61-10.86-43.85-10.21-66.64,1.36-47.56,17.94-89.17,49.6-124.7,4.14-4.65,8.76-8.87,13.19-13.24.82-.81,1.83-1.42,2.75-2.13l-.55-1.3ZM725.46,238.61c-84.89.31-149.7,70.75-146.32,152.36,3.21,77.41,68.48,142.84,151.66,139.84,76.64-2.76,141.35-65.66,140.56-147.52-.79-81.3-66.61-144.31-145.9-144.69Z"/>
  <path class="cls-1" d="M721.06,131.22c-.83-3.07-1.03-40.98-.24-46.11,1.11-.11,2.34-.32,3.58-.33,17.32-.2,34.52,1.27,51.58,4.18,26.52,4.52,51.98,12.49,76.36,23.9,26.78,12.54,51.19,28.65,73.22,48.36,29.11,26.04,52.18,56.7,69.38,91.73,13.73,27.95,22.8,57.38,27.29,88.22,3.59,24.68,4.14,49.42,1.61,74.21-3.6,35.36-13.18,69.04-28.81,100.98-13.46,27.52-30.7,52.42-51.78,74.63-23.09,24.33-49.48,44.31-79.24,59.85-25.86,13.5-53.13,22.94-81.74,28.48-22.28,4.31-44.79,5.82-67.47,5.1-34.88-1.1-68.52-8.13-100.92-21.04-34.66-13.82-65.6-33.51-92.9-58.93-19.21-17.89-35.96-37.83-49.94-60.06-12.85-20.43-23.1-42.1-30.67-65.02-.59-1.78-.82-3.42.19-5.22,10.27-18.36,20.48-36.75,30.71-55.13.5-.89,1.09-1.72,1.71-2.68,1.68.79,1.37,2.26,1.53,3.41,1.67,12.25,4.29,24.29,7.8,36.14,10.71,36.18,28.48,68.49,53.59,96.67,33.56,37.67,74.73,63.19,123.4,76.5,19.88,5.44,40.16,8.33,60.79,8.58,68.21.81,127.66-21.64,177.8-67.86,35.76-32.96,59.64-73.34,72.17-120.33,8.47-31.75,10.59-63.96,6.38-96.57-6.3-48.81-25.17-92.2-56.58-130.04-31.25-37.66-70.45-63.8-116.89-79.02-20.45-6.7-41.48-10.69-63.02-11.66-5.32-.24-10.64-.39-15.95-.61-1.01-.04-2.01-.2-2.92-.3Z"/>
  <path class="cls-1" d="M412.06,2.55h90.94c1.07,2.7,1.38,18.61.43,24.43-1.38.11-2.87.33-4.36.33-17.28.02-34.56,0-51.84.03-1.51,0-3.03.18-4.74.3v25.52c1.67.12,3.17.33,4.68.33,12.73.03,25.46.02,38.19.02,1.53,0,3.05,0,4.41,0,1.07,3.26,1.27,19.6.37,24.44-1.39.09-2.89.28-4.39.28-12.73.02-25.46.01-38.19.01-1.54,0-3.07,0-4.47,0-1,3.19-1.17,22.78-.27,27.61,9.96.01,20.04.03,30.12.04,10.1,0,20.21,0,30.18,0,.99,3.46,1.06,21.53.22,25.06-2.93.74-87.36.89-91.36.16-.88-3.28-.86-125.08.07-128.55Z"/>
  <path class="cls-1" d="M557.45,97.8c9.53-2.16,18.58-4.2,27.72-6.27.6,1.36,1.06,2.27,1.42,3.21,2.93,7.7,8.62,12.21,16.51,13.92,5.24,1.14,10.59,1.18,15.88.17,4.04-.77,7.67-2.45,10.27-5.83,4.58-5.96,3.11-13.57-3.75-16.63-4.81-2.15-10.06-3.34-15.16-4.83-6.72-1.97-13.5-3.73-20.19-5.78-2.59-.79-5.02-2.1-7.49-3.26-12.44-5.89-18.31-15.95-18.71-29.49-.59-20.23,11.77-36.45,31.68-41.06,14.72-3.41,29.19-2.47,42.95,4.15,9.85,4.74,16.17,12.77,20.1,22.82.13.34.1.75.19,1.57-3.86,2.17-8.32,3.03-12.51,4.54-4.12,1.48-8.31,2.75-12.54,4.14-.61-.99-1.09-1.59-1.39-2.28-4.16-9.44-11.88-12.99-21.64-12.77-3.2.07-6.48.67-9.55,1.59-4.38,1.31-6.97,4.55-7.25,9.16-.27,4.54,1.74,8.07,5.8,10.23,5,2.66,10.57,3.44,15.97,4.84,7.65,1.99,15.44,3.72,22.8,6.53,13.85,5.29,22.25,15.54,24.09,30.39,1.98,16.02-6.85,32.32-21.02,40.08-8.04,4.4-16.73,6.26-25.76,6.79-10.72.62-21.26-.17-31.37-4.26-12.8-5.17-21.57-14.12-25.96-27.25-.4-1.2-.61-2.47-1.07-4.39Z"/>
  <path class="cls-1" d="M157.45,2.53h25.53c.15,1.24.4,2.35.4,3.45.02,26.5.1,53-.05,79.5-.03,5.43-.73,10.88-1.45,16.27-1.87,14.13-10.58,22.62-23.26,27.77-6.96,2.82-14.27,3.91-21.69,4.25-7.8.36-15.59.1-23.27-1.5-12.13-2.54-22.02-8.35-28.14-19.55-2.46-4.51-3.78-9.4-4.38-14.45-.54-4.5-.98-9.05-1-13.58-.09-25.59-.05-51.18-.05-76.78,0-1.65,0-3.31,0-4.8,3.32-.93,27.59-1.14,32.76-.36.1,1.51.3,3.14.3,4.76.02,25.98-.03,51.96.06,77.94.01,3.48.51,6.98,1.05,10.43.82,5.19,4.02,8.77,8.69,10.73,8.59,3.61,17.24,3.37,25.64-.71,4.23-2.05,6.93-5.52,7.51-10.25.54-4.37,1.02-8.78,1.04-13.18.1-24.94.04-49.88.06-74.83,0-1.65.15-3.3.24-5.13Z"/>
  <path class="cls-1" d="M347.42,2.8v24.96c-1.72.11-3.22.28-4.72.29-16.75.02-33.5.01-50.25.01h-4.42c-1.07,3.48-1.15,24.65-.13,28.69h46.85c.59,8.28.24,16.09.28,24.41h-47.58c-.46,4.54-.19,8.65-.24,12.75-.05,4.15-.01,8.31-.01,12.47v24.33c-3.29,1.03-27.02,1.16-31.19.24V3.09c2.73-.92,85.7-1.23,91.42-.29Z"/>
  <path class="cls-1" d="M466.57,800.26c-.92.11-1.68.26-2.43.28-2.06.04-4.12.01-6.25.01-1.39-4.42.53-8.6.03-13.76-1.4,1.93-2.25,3.15-3.16,4.33-4.36,5.63-9.61,9.78-17.03,10.5-10.77,1.06-18.71-5.31-19.69-16.29-1.8-20.11,10.78-40.37,31.45-45.16,8-1.85,15.99-1.3,23.92.54,2.17.5,2.34,1.01,1.79,3.83-1.6,8.28-3.17,16.56-4.85,24.83-1.89,9.31-3.07,18.69-3.37,28.18-.03.87-.26,1.74-.41,2.7ZM463.25,748.17c-7.49-1.73-14.28-.52-20.36,3.97-8.04,5.94-12.51,14.09-13.9,23.9-.51,3.6-.58,7.26.78,10.76,2.02,5.19,6.65,7.67,11.89,5.85,2.62-.91,5.16-2.48,7.29-4.29,4.65-3.97,7.86-9.13,9.43-14.96,2.03-7.5,3.39-15.18,4.99-22.79.15-.71-.06-1.5-.12-2.45Z"/>
  <path class="cls-1" d="M831.83,764.78c-.59,14.03-5.73,25.68-18.2,33.16-6.51,3.91-13.69,4.81-21.04,3.19-8.14-1.8-13.48-6.96-16.02-14.86-4.49-13.98,1.67-35.78,18.65-44.12,6.53-3.21,13.42-3.95,20.46-2.25,8.77,2.12,15.14,10.06,16.13,19.84.17,1.67.02,3.37.02,5.05ZM821.61,763.22c-.5-1.94-.96-5.19-2.17-8.13-1.73-4.19-5.01-6.87-9.67-7.5-4.46-.61-8.48.52-12.08,3.2-8.89,6.6-13.94,21.98-10.7,32.58,2.76,9.02,11.91,12.76,20.2,8.18,1.57-.87,3.07-1.96,4.35-3.21,6.67-6.52,9.32-14.74,10.06-25.12Z"/>
  <path class="cls-1" d="M633.43,800.24c.75-4.25,1.43-8.3,2.2-12.34,1.48-7.77,3.1-15.52,4.45-23.32.48-2.78.66-5.71.4-8.51-.58-6.34-5.49-9.53-11.67-7.76-5.97,1.71-9.91,5.92-13.12,10.98-3.42,5.4-4.55,11.53-5.68,17.67-1.41,7.65-2.85,15.3-4.33,23.26h-10.49c3.72-19.95,7.38-39.65,11.09-59.57h8.9c-.25,3.17-.49,6.07-.8,9.98,1.37-1.33,2.15-2.02,2.85-2.78,4.37-4.76,9.62-7.78,16.12-8.59,10.75-1.34,18,4.68,18.27,15.53.07,3.08-.37,6.22-.92,9.27-2.02,11.23-4.19,22.44-6.32,33.66-.14.76-.43,1.49-.74,2.52h-10.23Z"/>
  <path class="cls-1" d="M949.62,797.48c.96-2.47,1.8-4.61,2.81-7.21,1.47.56,2.75,1.02,4.01,1.53,3.67,1.49,7.46,2.27,11.42,1.64,6.44-1.02,10.21-6.52,8.32-12.41-.53-1.64-1.68-3.22-2.93-4.45-1.36-1.34-3.18-2.21-4.75-3.35-2.19-1.6-4.64-2.99-6.45-4.95-8.04-8.72-4.49-22.4,7.01-27.19,6.49-2.7,13.17-2.63,19.81-.52,3.05.97,3.28,1.56,2.19,4.53-.57,1.55-1.27,3.04-1.73,4.12-4.12-.62-7.78-1.34-11.48-1.67-2.68-.24-5.09.91-7.07,2.74-3.27,3.03-3.65,7.91-.63,11.17,1.56,1.68,3.59,2.95,5.46,4.32,1.78,1.3,3.72,2.38,5.46,3.72,10.22,7.93,7.57,22.4-1.59,28.23-6.75,4.3-14.12,4.8-21.75,3.32-2.79-.54-5.52-1.35-8.11-3.55Z"/>
</svg>